<svg xmlns="http://www.w3.org/2000/svg" width="50" height="50">
  <title>
    Data_Structures
  </title>
  <defs>
    <linearGradient id="a" x1="13.689453%" x2="85.195313%" y1="11.537109%" y2="88.136719%">
      <stop stop-color="#FDECBA" offset="0%"/>
      <stop stop-color="#FAD484" offset="100%"/>
    </linearGradient>
  </defs>
  <g fill="none" fill-rule="evenodd">
    <ellipse cx="25" cy="25" fill="url(#a)" rx="25" ry="25"/>
    <path fill="#35424F" d="M24 19.07089v-3.196907C22.274773 15.42994 21 13.86384 21 12c0-2.20914 1.79086-4 4-4s4 1.79086 4 4c0 1.86384-1.274773 3.42994-3 3.873983v3.196906c1.823664.260853 3.42058 1.224615 4.507497 2.608036l2.721255-1.571118c-.47252-1.696224.238044-3.56139 1.83347-4.482508 1.890997-1.091768 4.309007-.443865 5.400775 1.447133s.443864 4.309007-1.447134 5.400775c-1.595425.92112-3.565988.603903-4.7987-.653423l-2.719892 1.57033C31.821546 24.19664 32 25.07748 32 26c0 1.572335-.518404 3.02359-1.393615 4.19217l2.260897 2.2609c1.533906-.905935 3.542707-.699936 4.86064.617998 1.562097 1.562097 1.562097 4.094757 0 5.656854-1.562097 1.562097-4.094757 1.562097-5.656854 0-1.317934-1.317933-1.523933-3.326734-.618-4.86064l-2.260897-2.260897C28.02359 32.481597 26.572337 33 25 33c-1.572335 0-3.02359-.518403-4.19217-1.393615l-2.2609 2.260897c.905935 1.533906.699936 3.542707-.617998 4.86064-1.562097 1.562097-4.094757 1.562097-5.656854 0-1.562097-1.562097-1.562097-4.094757 0-5.656854 1.317933-1.317934 3.326734-1.523933 4.86064-.618l2.260897-2.260897C18.518405 29.02359 18 27.572337 18 26c0-.922763.17855-1.803824.502984-2.61052l-2.71709-1.568712c-1.231867 1.256464-3.201078 1.573462-4.79541.652975-1.8897-1.09102-2.537158-3.50737-1.44614-5.39707 1.09102-1.8897 3.50737-2.53716 5.39707-1.44614 1.59433.920487 2.304408 2.784373 1.83221 4.479432l2.718456 1.5695C20.579006 20.295755 22.1761 19.331778 24 19.07089z"/>
    <circle cx="25" cy="12.013489" r="2" fill="#FFF"/>
    <circle cx="37.00783" cy="19.008606" r="2" fill="#FFF"/>
    <circle cx="15.014299" cy="36.013061" r="2" fill="#FFF"/>
    <circle cx="35.00783" cy="35.995483" r="2" fill="#FFF"/>
    <circle cx="13.014299" cy="18.983887" r="2" fill="#FFF"/>
    <circle cx="25.003853" cy="26.008057" r="4.89502" fill="#FFF"/>
  </g>
</svg>
