<svg xmlns="http://www.w3.org/2000/svg" width="50" height="50">
  <title>
    SQL
  </title>
  <defs>
    <linearGradient id="a" x1="12.094%" x2="85.504%" y1="13.108%" y2="87.915%">
      <stop stop-color="#D9EDFF" offset="0%"/>
      <stop stop-color="#B1D5FE" offset="100%"/>
    </linearGradient>
  </defs>
  <g fill="none" fill-rule="evenodd">
    <ellipse cx="25" cy="25" fill="url(#a)" rx="25" ry="25"/>
    <path fill="#35424F" d="M15.357 24.22v-2.358s2.517 2.1 10.695 2.158c8.178.056 10.035-2.158 10.035-2.158v2.358s-2.202 2.32-10.035 2.28c-7.833-.04-10.695-2.28-10.695-2.28zm.015-7.212L15.357 17v2.358s2.862 2.24 10.695 2.28c7.833.04 10.035-2.28 10.035-2.28v-2.214l-.022.014c.004-.062.007-.125.007-.188 0-2.776-4.094-3.56-10.35-3.56-6.257 0-10.35.784-10.35 3.56v.038z"/>
    <path fill="#35424F" d="M15.357 29.16v-2.84s2.517 2.32 10.695 2.376c8.178.057 10.035-2.375 10.035-2.375v2.84s-2.202 2.32-10.035 2.28c-7.833-.04-10.695-2.28-10.695-2.28z"/>
    <path fill="#35424F" d="M15.357 34.098v-2.755s2.517 2.236 10.695 2.293c8.178.056 10.035-2.293 10.035-2.293v2.755s-2.202 2.322-10.035 2.28c-7.833-.04-10.695-2.28-10.695-2.28z"/>
    <path fill="#FFF" d="M25.722 18.81c4.64 0 8.4-.95 8.4-1.84 0-.89-3.76-1.61-8.4-1.61-4.64 0-8.4.72-8.4 1.61 0 .89 3.76 1.84 8.4 1.84z"/>
  </g>
</svg>
